<mxfile host="app.diagrams.net" modified="2022-06-22T07:15:50.790Z" agent="5.0 (Windows NT 10.0; Win64; x64) AppleWebKit/537.36 (KHTML, like Gecko) Chrome/102.0.5005.124 Safari/537.36 Edg/102.0.1245.44" etag="zRw3EccnsnbxUcoXKi3t" version="20.0.1" type="github" pages="2">
  <diagram id="qfrqi139s_Qa_cyiiwQ2" name="第 1 页">
    <mxGraphModel dx="1010" dy="551" grid="1" gridSize="10" guides="1" tooltips="1" connect="1" arrows="1" fold="1" page="1" pageScale="1" pageWidth="980" pageHeight="1390" math="0" shadow="0">
      <root>
        <mxCell id="0" />
        <mxCell id="1" parent="0" />
        <mxCell id="7CrN32lwPKDlkBhgCrNZ-1" value="" style="ellipse;whiteSpace=wrap;html=1;aspect=fixed;fillColor=#00FF00;" parent="1" vertex="1">
          <mxGeometry x="90" y="250" width="20" height="20" as="geometry" />
        </mxCell>
        <mxCell id="7CrN32lwPKDlkBhgCrNZ-2" value="" style="endArrow=none;html=1;rounded=0;entryX=0;entryY=1;entryDx=0;entryDy=0;" parent="1" target="7CrN32lwPKDlkBhgCrNZ-1" edge="1">
          <mxGeometry width="50" height="50" relative="1" as="geometry">
            <mxPoint x="70" y="290" as="sourcePoint" />
            <mxPoint x="90" y="270" as="targetPoint" />
          </mxGeometry>
        </mxCell>
        <mxCell id="7CrN32lwPKDlkBhgCrNZ-3" value="" style="whiteSpace=wrap;html=1;aspect=fixed;fillColor=#00FF00;" parent="1" vertex="1">
          <mxGeometry x="50" y="290" width="20" height="20" as="geometry" />
        </mxCell>
        <mxCell id="7CrN32lwPKDlkBhgCrNZ-4" value="" style="whiteSpace=wrap;html=1;aspect=fixed;fillColor=#00FF00;" parent="1" vertex="1">
          <mxGeometry x="130" y="290" width="20" height="20" as="geometry" />
        </mxCell>
        <mxCell id="7CrN32lwPKDlkBhgCrNZ-5" value="" style="ellipse;whiteSpace=wrap;html=1;aspect=fixed;fillColor=#00FF00;" parent="1" vertex="1">
          <mxGeometry x="130" y="330" width="20" height="20" as="geometry" />
        </mxCell>
        <mxCell id="7CrN32lwPKDlkBhgCrNZ-6" value="" style="whiteSpace=wrap;html=1;aspect=fixed;fillColor=#00FF00;" parent="1" vertex="1">
          <mxGeometry x="170" y="370" width="20" height="20" as="geometry" />
        </mxCell>
        <mxCell id="7CrN32lwPKDlkBhgCrNZ-7" value="" style="whiteSpace=wrap;html=1;aspect=fixed;fillColor=#00FF00;" parent="1" vertex="1">
          <mxGeometry x="130" y="370" width="20" height="20" as="geometry" />
        </mxCell>
        <mxCell id="7CrN32lwPKDlkBhgCrNZ-8" value="" style="whiteSpace=wrap;html=1;aspect=fixed;fillColor=#00FF00;" parent="1" vertex="1">
          <mxGeometry x="90" y="370" width="20" height="20" as="geometry" />
        </mxCell>
        <mxCell id="7CrN32lwPKDlkBhgCrNZ-9" value="" style="ellipse;whiteSpace=wrap;html=1;aspect=fixed;fillColor=#00FF00;" parent="1" vertex="1">
          <mxGeometry x="170" y="410" width="20" height="20" as="geometry" />
        </mxCell>
        <mxCell id="7CrN32lwPKDlkBhgCrNZ-10" value="" style="ellipse;whiteSpace=wrap;html=1;aspect=fixed;fillColor=#00FF00;" parent="1" vertex="1">
          <mxGeometry x="130" y="410" width="20" height="20" as="geometry" />
        </mxCell>
        <mxCell id="7CrN32lwPKDlkBhgCrNZ-11" value="" style="ellipse;whiteSpace=wrap;html=1;aspect=fixed;fillColor=#00FF00;" parent="1" vertex="1">
          <mxGeometry x="90" y="410" width="20" height="20" as="geometry" />
        </mxCell>
        <mxCell id="7CrN32lwPKDlkBhgCrNZ-12" value="" style="endArrow=none;html=1;rounded=0;entryX=0;entryY=0;entryDx=0;entryDy=0;exitX=1;exitY=1;exitDx=0;exitDy=0;" parent="1" source="7CrN32lwPKDlkBhgCrNZ-1" target="7CrN32lwPKDlkBhgCrNZ-4" edge="1">
          <mxGeometry width="50" height="50" relative="1" as="geometry">
            <mxPoint x="80" y="300" as="sourcePoint" />
            <mxPoint x="102.9289321881347" y="277.0710678118653" as="targetPoint" />
          </mxGeometry>
        </mxCell>
        <mxCell id="7CrN32lwPKDlkBhgCrNZ-13" value="" style="endArrow=none;html=1;rounded=0;entryX=0;entryY=1;entryDx=0;entryDy=0;" parent="1" edge="1">
          <mxGeometry width="50" height="50" relative="1" as="geometry">
            <mxPoint x="110" y="370" as="sourcePoint" />
            <mxPoint x="132.9289321881347" y="347.0710678118653" as="targetPoint" />
          </mxGeometry>
        </mxCell>
        <mxCell id="7CrN32lwPKDlkBhgCrNZ-14" value="" style="endArrow=none;html=1;rounded=0;entryX=0;entryY=0;entryDx=0;entryDy=0;exitX=1;exitY=1;exitDx=0;exitDy=0;" parent="1" source="7CrN32lwPKDlkBhgCrNZ-5" target="7CrN32lwPKDlkBhgCrNZ-6" edge="1">
          <mxGeometry width="50" height="50" relative="1" as="geometry">
            <mxPoint x="117.0710678118653" y="277.0710678118653" as="sourcePoint" />
            <mxPoint x="140" y="300" as="targetPoint" />
          </mxGeometry>
        </mxCell>
        <mxCell id="7CrN32lwPKDlkBhgCrNZ-15" value="" style="endArrow=none;html=1;rounded=0;entryX=0.5;entryY=1;entryDx=0;entryDy=0;exitX=0.5;exitY=0;exitDx=0;exitDy=0;strokeColor=#FF0000;" parent="1" target="7CrN32lwPKDlkBhgCrNZ-3" edge="1">
          <mxGeometry width="50" height="50" relative="1" as="geometry">
            <mxPoint x="60" y="330" as="sourcePoint" />
            <mxPoint x="270" y="390" as="targetPoint" />
          </mxGeometry>
        </mxCell>
        <mxCell id="7CrN32lwPKDlkBhgCrNZ-16" value="" style="endArrow=none;html=1;rounded=0;entryX=0.5;entryY=1;entryDx=0;entryDy=0;exitX=0.5;exitY=0;exitDx=0;exitDy=0;strokeColor=#FF0000;strokeWidth=2;" parent="1" edge="1">
          <mxGeometry width="50" height="50" relative="1" as="geometry">
            <mxPoint x="139.5" y="410" as="sourcePoint" />
            <mxPoint x="139.5" y="390" as="targetPoint" />
          </mxGeometry>
        </mxCell>
        <mxCell id="7CrN32lwPKDlkBhgCrNZ-17" value="" style="endArrow=none;html=1;rounded=0;entryX=0.5;entryY=1;entryDx=0;entryDy=0;exitX=0.5;exitY=0;exitDx=0;exitDy=0;strokeColor=#FF0000;strokeWidth=2;" parent="1" edge="1">
          <mxGeometry width="50" height="50" relative="1" as="geometry">
            <mxPoint x="139.5" y="330" as="sourcePoint" />
            <mxPoint x="139.5" y="310" as="targetPoint" />
          </mxGeometry>
        </mxCell>
        <mxCell id="7CrN32lwPKDlkBhgCrNZ-18" value="" style="endArrow=none;html=1;rounded=0;entryX=0.5;entryY=1;entryDx=0;entryDy=0;exitX=0.5;exitY=0;exitDx=0;exitDy=0;strokeColor=#FF0000;strokeWidth=2;" parent="1" edge="1">
          <mxGeometry width="50" height="50" relative="1" as="geometry">
            <mxPoint x="99.5" y="410" as="sourcePoint" />
            <mxPoint x="99.5" y="390" as="targetPoint" />
          </mxGeometry>
        </mxCell>
        <mxCell id="7CrN32lwPKDlkBhgCrNZ-19" value="" style="endArrow=none;html=1;rounded=0;entryX=0.5;entryY=1;entryDx=0;entryDy=0;exitX=0.5;exitY=0;exitDx=0;exitDy=0;strokeColor=#FF0000;strokeWidth=2;" parent="1" edge="1">
          <mxGeometry width="50" height="50" relative="1" as="geometry">
            <mxPoint x="179.5" y="410" as="sourcePoint" />
            <mxPoint x="179.5" y="390" as="targetPoint" />
          </mxGeometry>
        </mxCell>
        <mxCell id="7CrN32lwPKDlkBhgCrNZ-20" value="" style="endArrow=none;html=1;rounded=0;entryX=0.5;entryY=1;entryDx=0;entryDy=0;exitX=0.5;exitY=0;exitDx=0;exitDy=0;" parent="1" source="7CrN32lwPKDlkBhgCrNZ-7" target="7CrN32lwPKDlkBhgCrNZ-5" edge="1">
          <mxGeometry width="50" height="50" relative="1" as="geometry">
            <mxPoint x="70" y="340" as="sourcePoint" />
            <mxPoint x="70" y="320" as="targetPoint" />
          </mxGeometry>
        </mxCell>
        <mxCell id="7CrN32lwPKDlkBhgCrNZ-23" value="" style="whiteSpace=wrap;html=1;aspect=fixed;fillColor=#00FF00;" parent="1" vertex="1">
          <mxGeometry x="330" y="370" width="20" height="20" as="geometry" />
        </mxCell>
        <mxCell id="7CrN32lwPKDlkBhgCrNZ-24" value="" style="whiteSpace=wrap;html=1;aspect=fixed;fillColor=#00FF00;" parent="1" vertex="1">
          <mxGeometry x="250" y="370" width="20" height="20" as="geometry" />
        </mxCell>
        <mxCell id="7CrN32lwPKDlkBhgCrNZ-25" value="" style="ellipse;whiteSpace=wrap;html=1;aspect=fixed;fillColor=#00FF00;" parent="1" vertex="1">
          <mxGeometry x="330" y="410" width="20" height="20" as="geometry" />
        </mxCell>
        <mxCell id="7CrN32lwPKDlkBhgCrNZ-26" value="" style="ellipse;whiteSpace=wrap;html=1;aspect=fixed;fillColor=#00FF00;" parent="1" vertex="1">
          <mxGeometry x="250" y="410" width="20" height="20" as="geometry" />
        </mxCell>
        <mxCell id="7CrN32lwPKDlkBhgCrNZ-29" value="" style="endArrow=none;html=1;rounded=0;entryX=0.5;entryY=1;entryDx=0;entryDy=0;exitX=0.5;exitY=0;exitDx=0;exitDy=0;strokeColor=#FF0000;strokeWidth=2;" parent="1" edge="1">
          <mxGeometry width="50" height="50" relative="1" as="geometry">
            <mxPoint x="299.5" y="330" as="sourcePoint" />
            <mxPoint x="299.5" y="310" as="targetPoint" />
          </mxGeometry>
        </mxCell>
        <mxCell id="7CrN32lwPKDlkBhgCrNZ-30" value="" style="endArrow=none;html=1;rounded=0;entryX=0.5;entryY=1;entryDx=0;entryDy=0;exitX=0.5;exitY=0;exitDx=0;exitDy=0;strokeColor=#FF0000;strokeWidth=2;" parent="1" edge="1">
          <mxGeometry width="50" height="50" relative="1" as="geometry">
            <mxPoint x="259.5" y="410" as="sourcePoint" />
            <mxPoint x="259.5" y="390" as="targetPoint" />
          </mxGeometry>
        </mxCell>
        <mxCell id="7CrN32lwPKDlkBhgCrNZ-31" value="" style="endArrow=none;html=1;rounded=0;entryX=0.5;entryY=1;entryDx=0;entryDy=0;exitX=0.5;exitY=0;exitDx=0;exitDy=0;strokeColor=#FF0000;strokeWidth=2;" parent="1" edge="1">
          <mxGeometry width="50" height="50" relative="1" as="geometry">
            <mxPoint x="339.5" y="410" as="sourcePoint" />
            <mxPoint x="339.5" y="390" as="targetPoint" />
          </mxGeometry>
        </mxCell>
        <mxCell id="7CrN32lwPKDlkBhgCrNZ-33" value="" style="ellipse;whiteSpace=wrap;html=1;aspect=fixed;fillColor=#00FF00;" parent="1" vertex="1">
          <mxGeometry x="290" y="250" width="20" height="20" as="geometry" />
        </mxCell>
        <mxCell id="7CrN32lwPKDlkBhgCrNZ-35" value="" style="ellipse;whiteSpace=wrap;html=1;aspect=fixed;fillColor=#00FF00;" parent="1" vertex="1">
          <mxGeometry x="190" y="250" width="20" height="20" as="geometry" />
        </mxCell>
        <mxCell id="7CrN32lwPKDlkBhgCrNZ-36" value="" style="endArrow=none;html=1;rounded=0;entryX=0.5;entryY=1;entryDx=0;entryDy=0;exitX=0.5;exitY=0;exitDx=0;exitDy=0;strokeColor=#FF0000;strokeWidth=2;" parent="1" edge="1">
          <mxGeometry width="50" height="50" relative="1" as="geometry">
            <mxPoint x="59.5" y="330" as="sourcePoint" />
            <mxPoint x="59.5" y="310" as="targetPoint" />
          </mxGeometry>
        </mxCell>
        <mxCell id="7CrN32lwPKDlkBhgCrNZ-39" value="" style="endArrow=none;dashed=1;html=1;rounded=0;strokeColor=#000000;entryX=0;entryY=0.5;entryDx=0;entryDy=0;exitX=1;exitY=0.5;exitDx=0;exitDy=0;" parent="1" source="7CrN32lwPKDlkBhgCrNZ-26" target="7CrN32lwPKDlkBhgCrNZ-25" edge="1">
          <mxGeometry width="50" height="50" relative="1" as="geometry">
            <mxPoint x="160" y="350" as="sourcePoint" />
            <mxPoint x="300" y="350" as="targetPoint" />
          </mxGeometry>
        </mxCell>
        <mxCell id="7CrN32lwPKDlkBhgCrNZ-40" value="" style="ellipse;whiteSpace=wrap;html=1;aspect=fixed;fillColor=#00FF00;" parent="1" vertex="1">
          <mxGeometry x="730" y="90" width="20" height="20" as="geometry" />
        </mxCell>
        <mxCell id="7CrN32lwPKDlkBhgCrNZ-41" value="" style="whiteSpace=wrap;html=1;aspect=fixed;fillColor=#00FF00;" parent="1" vertex="1">
          <mxGeometry x="730" y="130" width="20" height="20" as="geometry" />
        </mxCell>
        <mxCell id="7CrN32lwPKDlkBhgCrNZ-42" value="outer vertex" style="text;html=1;align=center;verticalAlign=middle;resizable=0;points=[];autosize=1;strokeColor=none;fillColor=none;" parent="1" vertex="1">
          <mxGeometry x="770" y="90" width="80" height="20" as="geometry" />
        </mxCell>
        <mxCell id="7CrN32lwPKDlkBhgCrNZ-43" value="inner vertex" style="text;html=1;align=center;verticalAlign=middle;resizable=0;points=[];autosize=1;strokeColor=none;fillColor=none;" parent="1" vertex="1">
          <mxGeometry x="770" y="130" width="80" height="20" as="geometry" />
        </mxCell>
        <mxCell id="7CrN32lwPKDlkBhgCrNZ-54" value="" style="ellipse;whiteSpace=wrap;html=1;aspect=fixed;fillColor=#00FF00;" parent="1" vertex="1">
          <mxGeometry x="50" y="330" width="20" height="20" as="geometry" />
        </mxCell>
        <mxCell id="7CrN32lwPKDlkBhgCrNZ-55" value="" style="endArrow=none;dashed=1;html=1;rounded=0;strokeColor=#000000;entryX=0.5;entryY=1;entryDx=0;entryDy=0;exitX=0.5;exitY=0;exitDx=0;exitDy=0;" parent="1" source="7CrN32lwPKDlkBhgCrNZ-24" edge="1">
          <mxGeometry width="50" height="50" relative="1" as="geometry">
            <mxPoint x="280" y="430" as="sourcePoint" />
            <mxPoint x="300" y="350" as="targetPoint" />
          </mxGeometry>
        </mxCell>
        <mxCell id="7CrN32lwPKDlkBhgCrNZ-56" value="" style="endArrow=none;dashed=1;html=1;rounded=0;strokeColor=#000000;entryX=0.5;entryY=0;entryDx=0;entryDy=0;startArrow=none;exitX=0.5;exitY=1;exitDx=0;exitDy=0;" parent="1" source="7CrN32lwPKDlkBhgCrNZ-57" target="7CrN32lwPKDlkBhgCrNZ-23" edge="1">
          <mxGeometry width="50" height="50" relative="1" as="geometry">
            <mxPoint x="300" y="350" as="sourcePoint" />
            <mxPoint x="340" y="430" as="targetPoint" />
          </mxGeometry>
        </mxCell>
        <mxCell id="7CrN32lwPKDlkBhgCrNZ-57" value="" style="whiteSpace=wrap;html=1;aspect=fixed;fillColor=#00FF00;" parent="1" vertex="1">
          <mxGeometry x="290" y="330" width="20" height="20" as="geometry" />
        </mxCell>
        <mxCell id="7CrN32lwPKDlkBhgCrNZ-59" value="" style="ellipse;whiteSpace=wrap;html=1;aspect=fixed;fillColor=#00FF00;" parent="1" vertex="1">
          <mxGeometry x="290" y="290" width="20" height="20" as="geometry" />
        </mxCell>
        <mxCell id="7CrN32lwPKDlkBhgCrNZ-61" value="" style="endArrow=none;dashed=1;html=1;rounded=0;strokeColor=#000000;entryX=0.5;entryY=1;entryDx=0;entryDy=0;" parent="1" target="7CrN32lwPKDlkBhgCrNZ-33" edge="1">
          <mxGeometry width="50" height="50" relative="1" as="geometry">
            <mxPoint x="300" y="290" as="sourcePoint" />
            <mxPoint x="340" y="430" as="targetPoint" />
          </mxGeometry>
        </mxCell>
        <mxCell id="7CrN32lwPKDlkBhgCrNZ-62" value="" style="endArrow=none;html=1;rounded=0;entryX=0;entryY=0.5;entryDx=0;entryDy=0;exitX=1;exitY=0.5;exitDx=0;exitDy=0;" parent="1" source="7CrN32lwPKDlkBhgCrNZ-5" target="7CrN32lwPKDlkBhgCrNZ-57" edge="1">
          <mxGeometry width="50" height="50" relative="1" as="geometry">
            <mxPoint x="157.07106781186553" y="357.07106781186553" as="sourcePoint" />
            <mxPoint x="180" y="380" as="targetPoint" />
          </mxGeometry>
        </mxCell>
        <mxCell id="7CrN32lwPKDlkBhgCrNZ-66" style="edgeStyle=orthogonalEdgeStyle;rounded=0;orthogonalLoop=1;jettySize=auto;html=1;exitX=0.5;exitY=1;exitDx=0;exitDy=0;entryX=0.5;entryY=0;entryDx=0;entryDy=0;strokeColor=#0000FF;" parent="1" source="7CrN32lwPKDlkBhgCrNZ-63" target="7CrN32lwPKDlkBhgCrNZ-1" edge="1">
          <mxGeometry relative="1" as="geometry" />
        </mxCell>
        <mxCell id="7CrN32lwPKDlkBhgCrNZ-63" value="&lt;b&gt;start&lt;/b&gt;" style="text;html=1;strokeColor=none;fillColor=none;align=center;verticalAlign=middle;whiteSpace=wrap;rounded=0;" parent="1" vertex="1">
          <mxGeometry x="70" y="180" width="60" height="30" as="geometry" />
        </mxCell>
        <mxCell id="7CrN32lwPKDlkBhgCrNZ-64" value="" style="endArrow=none;dashed=1;html=1;dashPattern=1 3;strokeWidth=2;rounded=0;strokeColor=#0000FF;" parent="1" edge="1">
          <mxGeometry width="50" height="50" relative="1" as="geometry">
            <mxPoint x="30" y="240" as="sourcePoint" />
            <mxPoint x="30" y="240" as="targetPoint" />
            <Array as="points">
              <mxPoint x="170" y="240" />
              <mxPoint x="170" y="280" />
              <mxPoint x="350" y="280" />
              <mxPoint x="350" y="360" />
              <mxPoint x="200" y="360" />
              <mxPoint x="200" y="440" />
              <mxPoint x="30" y="440" />
            </Array>
          </mxGeometry>
        </mxCell>
        <mxCell id="7CrN32lwPKDlkBhgCrNZ-67" value="" style="shape=flexArrow;endArrow=classic;html=1;rounded=0;strokeColor=#0000FF;" parent="1" edge="1">
          <mxGeometry width="50" height="50" relative="1" as="geometry">
            <mxPoint x="360" y="320" as="sourcePoint" />
            <mxPoint x="460" y="320" as="targetPoint" />
          </mxGeometry>
        </mxCell>
        <mxCell id="7CrN32lwPKDlkBhgCrNZ-68" value="choose next exposed vertex" style="text;html=1;strokeColor=none;fillColor=none;align=center;verticalAlign=middle;whiteSpace=wrap;rounded=0;" parent="1" vertex="1">
          <mxGeometry x="370" y="260" width="90" height="30" as="geometry" />
        </mxCell>
        <mxCell id="7CrN32lwPKDlkBhgCrNZ-69" value="" style="ellipse;whiteSpace=wrap;html=1;aspect=fixed;fillColor=#00FF00;" parent="1" vertex="1">
          <mxGeometry x="530" y="250" width="20" height="20" as="geometry" />
        </mxCell>
        <mxCell id="7CrN32lwPKDlkBhgCrNZ-70" value="" style="endArrow=none;html=1;rounded=0;entryX=0;entryY=1;entryDx=0;entryDy=0;" parent="1" target="7CrN32lwPKDlkBhgCrNZ-69" edge="1">
          <mxGeometry width="50" height="50" relative="1" as="geometry">
            <mxPoint x="510" y="290" as="sourcePoint" />
            <mxPoint x="530" y="270" as="targetPoint" />
          </mxGeometry>
        </mxCell>
        <mxCell id="7CrN32lwPKDlkBhgCrNZ-71" value="" style="whiteSpace=wrap;html=1;aspect=fixed;fillColor=#00FF00;" parent="1" vertex="1">
          <mxGeometry x="490" y="290" width="20" height="20" as="geometry" />
        </mxCell>
        <mxCell id="7CrN32lwPKDlkBhgCrNZ-72" value="" style="whiteSpace=wrap;html=1;aspect=fixed;fillColor=#00FF00;" parent="1" vertex="1">
          <mxGeometry x="570" y="290" width="20" height="20" as="geometry" />
        </mxCell>
        <mxCell id="7CrN32lwPKDlkBhgCrNZ-73" value="" style="ellipse;whiteSpace=wrap;html=1;aspect=fixed;fillColor=#00FF00;" parent="1" vertex="1">
          <mxGeometry x="570" y="330" width="20" height="20" as="geometry" />
        </mxCell>
        <mxCell id="7CrN32lwPKDlkBhgCrNZ-74" value="" style="whiteSpace=wrap;html=1;aspect=fixed;fillColor=#00FF00;" parent="1" vertex="1">
          <mxGeometry x="610" y="370" width="20" height="20" as="geometry" />
        </mxCell>
        <mxCell id="7CrN32lwPKDlkBhgCrNZ-75" value="" style="whiteSpace=wrap;html=1;aspect=fixed;fillColor=#00FF00;" parent="1" vertex="1">
          <mxGeometry x="570" y="370" width="20" height="20" as="geometry" />
        </mxCell>
        <mxCell id="7CrN32lwPKDlkBhgCrNZ-76" value="" style="whiteSpace=wrap;html=1;aspect=fixed;fillColor=#00FF00;" parent="1" vertex="1">
          <mxGeometry x="530" y="370" width="20" height="20" as="geometry" />
        </mxCell>
        <mxCell id="7CrN32lwPKDlkBhgCrNZ-77" value="" style="ellipse;whiteSpace=wrap;html=1;aspect=fixed;fillColor=#00FF00;" parent="1" vertex="1">
          <mxGeometry x="610" y="410" width="20" height="20" as="geometry" />
        </mxCell>
        <mxCell id="7CrN32lwPKDlkBhgCrNZ-78" value="" style="ellipse;whiteSpace=wrap;html=1;aspect=fixed;fillColor=#00FF00;" parent="1" vertex="1">
          <mxGeometry x="570" y="410" width="20" height="20" as="geometry" />
        </mxCell>
        <mxCell id="7CrN32lwPKDlkBhgCrNZ-80" value="" style="endArrow=none;html=1;rounded=0;entryX=0;entryY=0;entryDx=0;entryDy=0;exitX=1;exitY=1;exitDx=0;exitDy=0;" parent="1" source="7CrN32lwPKDlkBhgCrNZ-69" target="7CrN32lwPKDlkBhgCrNZ-72" edge="1">
          <mxGeometry width="50" height="50" relative="1" as="geometry">
            <mxPoint x="520" y="300" as="sourcePoint" />
            <mxPoint x="542.9289321881347" y="277.0710678118653" as="targetPoint" />
          </mxGeometry>
        </mxCell>
        <mxCell id="7CrN32lwPKDlkBhgCrNZ-81" value="" style="endArrow=none;html=1;rounded=0;entryX=0;entryY=1;entryDx=0;entryDy=0;" parent="1" edge="1">
          <mxGeometry width="50" height="50" relative="1" as="geometry">
            <mxPoint x="550" y="370" as="sourcePoint" />
            <mxPoint x="572.9289321881347" y="347.0710678118653" as="targetPoint" />
          </mxGeometry>
        </mxCell>
        <mxCell id="7CrN32lwPKDlkBhgCrNZ-82" value="" style="endArrow=none;html=1;rounded=0;entryX=0;entryY=0;entryDx=0;entryDy=0;exitX=1;exitY=1;exitDx=0;exitDy=0;" parent="1" source="7CrN32lwPKDlkBhgCrNZ-73" target="7CrN32lwPKDlkBhgCrNZ-74" edge="1">
          <mxGeometry width="50" height="50" relative="1" as="geometry">
            <mxPoint x="557.0710678118653" y="277.0710678118653" as="sourcePoint" />
            <mxPoint x="580" y="300" as="targetPoint" />
          </mxGeometry>
        </mxCell>
        <mxCell id="7CrN32lwPKDlkBhgCrNZ-83" value="" style="endArrow=none;html=1;rounded=0;entryX=0.5;entryY=1;entryDx=0;entryDy=0;exitX=0.5;exitY=0;exitDx=0;exitDy=0;strokeColor=#FF0000;" parent="1" target="7CrN32lwPKDlkBhgCrNZ-71" edge="1">
          <mxGeometry width="50" height="50" relative="1" as="geometry">
            <mxPoint x="500" y="330" as="sourcePoint" />
            <mxPoint x="710" y="390" as="targetPoint" />
          </mxGeometry>
        </mxCell>
        <mxCell id="7CrN32lwPKDlkBhgCrNZ-84" value="" style="endArrow=none;html=1;rounded=0;entryX=0.5;entryY=1;entryDx=0;entryDy=0;exitX=0.5;exitY=0;exitDx=0;exitDy=0;strokeColor=#FF0000;strokeWidth=2;" parent="1" edge="1">
          <mxGeometry width="50" height="50" relative="1" as="geometry">
            <mxPoint x="579.5" y="410" as="sourcePoint" />
            <mxPoint x="579.5" y="390" as="targetPoint" />
          </mxGeometry>
        </mxCell>
        <mxCell id="7CrN32lwPKDlkBhgCrNZ-85" value="" style="endArrow=none;html=1;rounded=0;entryX=0.5;entryY=1;entryDx=0;entryDy=0;exitX=0.5;exitY=0;exitDx=0;exitDy=0;strokeColor=#FF0000;strokeWidth=2;" parent="1" edge="1">
          <mxGeometry width="50" height="50" relative="1" as="geometry">
            <mxPoint x="579.5" y="330" as="sourcePoint" />
            <mxPoint x="579.5" y="310" as="targetPoint" />
          </mxGeometry>
        </mxCell>
        <mxCell id="7CrN32lwPKDlkBhgCrNZ-86" value="" style="endArrow=none;html=1;rounded=0;entryX=0.5;entryY=1;entryDx=0;entryDy=0;exitX=0.5;exitY=0;exitDx=0;exitDy=0;strokeColor=#FF0000;strokeWidth=2;" parent="1" edge="1">
          <mxGeometry width="50" height="50" relative="1" as="geometry">
            <mxPoint x="539.5" y="410" as="sourcePoint" />
            <mxPoint x="539.5" y="390" as="targetPoint" />
          </mxGeometry>
        </mxCell>
        <mxCell id="7CrN32lwPKDlkBhgCrNZ-87" value="" style="endArrow=none;html=1;rounded=0;entryX=0.5;entryY=1;entryDx=0;entryDy=0;exitX=0.5;exitY=0;exitDx=0;exitDy=0;strokeColor=#FF0000;strokeWidth=2;" parent="1" edge="1">
          <mxGeometry width="50" height="50" relative="1" as="geometry">
            <mxPoint x="619.5" y="410" as="sourcePoint" />
            <mxPoint x="619.5" y="390" as="targetPoint" />
          </mxGeometry>
        </mxCell>
        <mxCell id="7CrN32lwPKDlkBhgCrNZ-88" value="" style="endArrow=none;html=1;rounded=0;entryX=0.5;entryY=1;entryDx=0;entryDy=0;exitX=0.5;exitY=0;exitDx=0;exitDy=0;" parent="1" source="7CrN32lwPKDlkBhgCrNZ-75" target="7CrN32lwPKDlkBhgCrNZ-73" edge="1">
          <mxGeometry width="50" height="50" relative="1" as="geometry">
            <mxPoint x="510" y="340" as="sourcePoint" />
            <mxPoint x="510" y="320" as="targetPoint" />
          </mxGeometry>
        </mxCell>
        <mxCell id="7CrN32lwPKDlkBhgCrNZ-89" value="" style="endArrow=none;dashed=1;html=1;rounded=0;strokeColor=#000000;" parent="1" edge="1">
          <mxGeometry width="50" height="50" relative="1" as="geometry">
            <mxPoint x="590" y="340" as="sourcePoint" />
            <mxPoint x="730" y="340" as="targetPoint" />
          </mxGeometry>
        </mxCell>
        <mxCell id="7CrN32lwPKDlkBhgCrNZ-91" value="" style="whiteSpace=wrap;html=1;aspect=fixed;fillColor=#00FF00;" parent="1" vertex="1">
          <mxGeometry x="770" y="370" width="20" height="20" as="geometry" />
        </mxCell>
        <mxCell id="7CrN32lwPKDlkBhgCrNZ-92" value="" style="whiteSpace=wrap;html=1;aspect=fixed;fillColor=#00FF00;" parent="1" vertex="1">
          <mxGeometry x="690" y="370" width="20" height="20" as="geometry" />
        </mxCell>
        <mxCell id="7CrN32lwPKDlkBhgCrNZ-93" value="" style="ellipse;whiteSpace=wrap;html=1;aspect=fixed;fillColor=#00FF00;" parent="1" vertex="1">
          <mxGeometry x="770" y="410" width="20" height="20" as="geometry" />
        </mxCell>
        <mxCell id="7CrN32lwPKDlkBhgCrNZ-94" value="" style="ellipse;whiteSpace=wrap;html=1;aspect=fixed;fillColor=#00FF00;" parent="1" vertex="1">
          <mxGeometry x="690" y="410" width="20" height="20" as="geometry" />
        </mxCell>
        <mxCell id="7CrN32lwPKDlkBhgCrNZ-95" value="" style="endArrow=none;html=1;rounded=0;entryX=0;entryY=1;entryDx=0;entryDy=0;" parent="1" edge="1">
          <mxGeometry width="50" height="50" relative="1" as="geometry">
            <mxPoint x="710" y="370" as="sourcePoint" />
            <mxPoint x="732.9289321881347" y="347.0710678118653" as="targetPoint" />
          </mxGeometry>
        </mxCell>
        <mxCell id="7CrN32lwPKDlkBhgCrNZ-96" value="" style="endArrow=none;html=1;rounded=0;entryX=0;entryY=0;entryDx=0;entryDy=0;exitX=1;exitY=1;exitDx=0;exitDy=0;startArrow=none;" parent="1" target="7CrN32lwPKDlkBhgCrNZ-91" edge="1">
          <mxGeometry width="50" height="50" relative="1" as="geometry">
            <mxPoint x="750" y="350" as="sourcePoint" />
            <mxPoint x="740" y="300" as="targetPoint" />
          </mxGeometry>
        </mxCell>
        <mxCell id="7CrN32lwPKDlkBhgCrNZ-98" value="" style="endArrow=none;html=1;rounded=0;entryX=0.5;entryY=1;entryDx=0;entryDy=0;exitX=0.5;exitY=0;exitDx=0;exitDy=0;strokeColor=#FF0000;strokeWidth=2;" parent="1" edge="1">
          <mxGeometry width="50" height="50" relative="1" as="geometry">
            <mxPoint x="699.5" y="410" as="sourcePoint" />
            <mxPoint x="699.5" y="390" as="targetPoint" />
          </mxGeometry>
        </mxCell>
        <mxCell id="7CrN32lwPKDlkBhgCrNZ-99" value="" style="endArrow=none;html=1;rounded=0;entryX=0.5;entryY=1;entryDx=0;entryDy=0;exitX=0.5;exitY=0;exitDx=0;exitDy=0;strokeColor=#FF0000;strokeWidth=2;" parent="1" edge="1">
          <mxGeometry width="50" height="50" relative="1" as="geometry">
            <mxPoint x="779.5" y="410" as="sourcePoint" />
            <mxPoint x="779.5" y="390" as="targetPoint" />
          </mxGeometry>
        </mxCell>
        <mxCell id="7CrN32lwPKDlkBhgCrNZ-101" value="" style="ellipse;whiteSpace=wrap;html=1;aspect=fixed;fillColor=#00FF00;" parent="1" vertex="1">
          <mxGeometry x="730" y="250" width="20" height="20" as="geometry" />
        </mxCell>
        <mxCell id="7CrN32lwPKDlkBhgCrNZ-102" value="" style="endArrow=none;html=1;rounded=0;exitX=0.5;exitY=0;exitDx=0;exitDy=0;entryX=0.5;entryY=1;entryDx=0;entryDy=0;" parent="1" target="7CrN32lwPKDlkBhgCrNZ-101" edge="1">
          <mxGeometry width="50" height="50" relative="1" as="geometry">
            <mxPoint x="740" y="290" as="sourcePoint" />
            <mxPoint x="680" y="320" as="targetPoint" />
          </mxGeometry>
        </mxCell>
        <mxCell id="7CrN32lwPKDlkBhgCrNZ-103" value="" style="ellipse;whiteSpace=wrap;html=1;aspect=fixed;fillColor=#00FF00;" parent="1" vertex="1">
          <mxGeometry x="630" y="250" width="20" height="20" as="geometry" />
        </mxCell>
        <mxCell id="7CrN32lwPKDlkBhgCrNZ-104" value="" style="endArrow=none;html=1;rounded=0;entryX=0.5;entryY=1;entryDx=0;entryDy=0;exitX=0.5;exitY=0;exitDx=0;exitDy=0;strokeColor=#FF0000;strokeWidth=2;" parent="1" edge="1">
          <mxGeometry width="50" height="50" relative="1" as="geometry">
            <mxPoint x="499.5" y="330" as="sourcePoint" />
            <mxPoint x="499.5" y="310" as="targetPoint" />
          </mxGeometry>
        </mxCell>
        <mxCell id="7CrN32lwPKDlkBhgCrNZ-107" value="" style="endArrow=none;dashed=1;html=1;rounded=0;strokeColor=#000000;entryX=0;entryY=0.5;entryDx=0;entryDy=0;exitX=1;exitY=0.5;exitDx=0;exitDy=0;" parent="1" source="7CrN32lwPKDlkBhgCrNZ-94" target="7CrN32lwPKDlkBhgCrNZ-93" edge="1">
          <mxGeometry width="50" height="50" relative="1" as="geometry">
            <mxPoint x="600" y="350" as="sourcePoint" />
            <mxPoint x="740" y="350" as="targetPoint" />
          </mxGeometry>
        </mxCell>
        <mxCell id="7CrN32lwPKDlkBhgCrNZ-115" value="" style="ellipse;whiteSpace=wrap;html=1;aspect=fixed;fillColor=#00FF00;" parent="1" vertex="1">
          <mxGeometry x="530" y="410" width="20" height="20" as="geometry" />
        </mxCell>
        <mxCell id="7CrN32lwPKDlkBhgCrNZ-122" value="" style="ellipse;whiteSpace=wrap;html=1;aspect=fixed;fillColor=#00FF00;" parent="1" vertex="1">
          <mxGeometry x="490" y="330" width="20" height="20" as="geometry" />
        </mxCell>
        <mxCell id="7CrN32lwPKDlkBhgCrNZ-125" style="edgeStyle=orthogonalEdgeStyle;rounded=0;orthogonalLoop=1;jettySize=auto;html=1;exitX=0.5;exitY=1;exitDx=0;exitDy=0;entryX=0.5;entryY=0;entryDx=0;entryDy=0;strokeColor=#0000FF;" parent="1" source="7CrN32lwPKDlkBhgCrNZ-124" target="7CrN32lwPKDlkBhgCrNZ-101" edge="1">
          <mxGeometry relative="1" as="geometry" />
        </mxCell>
        <mxCell id="7CrN32lwPKDlkBhgCrNZ-124" value="&lt;b&gt;continue&lt;/b&gt;" style="text;html=1;strokeColor=none;fillColor=none;align=center;verticalAlign=middle;whiteSpace=wrap;rounded=0;" parent="1" vertex="1">
          <mxGeometry x="710" y="180" width="60" height="30" as="geometry" />
        </mxCell>
        <mxCell id="7CrN32lwPKDlkBhgCrNZ-130" value="" style="endArrow=none;dashed=1;html=1;dashPattern=1 3;strokeWidth=2;rounded=0;strokeColor=#0000FF;" parent="1" edge="1">
          <mxGeometry width="50" height="50" relative="1" as="geometry">
            <mxPoint x="680" y="250" as="sourcePoint" />
            <mxPoint x="680" y="250" as="targetPoint" />
            <Array as="points">
              <mxPoint x="800" y="250" />
              <mxPoint x="800" y="440" />
              <mxPoint x="680" y="440" />
            </Array>
          </mxGeometry>
        </mxCell>
        <mxCell id="7CrN32lwPKDlkBhgCrNZ-131" value="" style="whiteSpace=wrap;html=1;aspect=fixed;fillColor=#00FF00;" parent="1" vertex="1">
          <mxGeometry x="730" y="290" width="20" height="20" as="geometry" />
        </mxCell>
        <mxCell id="7CrN32lwPKDlkBhgCrNZ-132" value="" style="endArrow=none;html=1;rounded=0;entryX=0.5;entryY=1;entryDx=0;entryDy=0;exitX=0.5;exitY=0;exitDx=0;exitDy=0;strokeColor=#FF0000;" parent="1" target="7CrN32lwPKDlkBhgCrNZ-131" edge="1">
          <mxGeometry width="50" height="50" relative="1" as="geometry">
            <mxPoint x="740" y="330" as="sourcePoint" />
            <mxPoint x="950" y="390" as="targetPoint" />
          </mxGeometry>
        </mxCell>
        <mxCell id="7CrN32lwPKDlkBhgCrNZ-133" value="" style="endArrow=none;html=1;rounded=0;entryX=0.5;entryY=1;entryDx=0;entryDy=0;exitX=0.5;exitY=0;exitDx=0;exitDy=0;strokeColor=#FF0000;strokeWidth=2;" parent="1" edge="1">
          <mxGeometry width="50" height="50" relative="1" as="geometry">
            <mxPoint x="739.5" y="330" as="sourcePoint" />
            <mxPoint x="739.5" y="310" as="targetPoint" />
          </mxGeometry>
        </mxCell>
        <mxCell id="7CrN32lwPKDlkBhgCrNZ-134" value="" style="ellipse;whiteSpace=wrap;html=1;aspect=fixed;fillColor=#00FF00;" parent="1" vertex="1">
          <mxGeometry x="730" y="330" width="20" height="20" as="geometry" />
        </mxCell>
        <mxCell id="7CrN32lwPKDlkBhgCrNZ-135" value="Change the inner and outer vertices" style="text;html=1;strokeColor=none;fillColor=none;align=center;verticalAlign=middle;whiteSpace=wrap;rounded=0;" parent="1" vertex="1">
          <mxGeometry x="840" y="310" width="110" height="30" as="geometry" />
        </mxCell>
        <mxCell id="7CrN32lwPKDlkBhgCrNZ-136" value="" style="endArrow=classic;html=1;rounded=0;strokeColor=#0000FF;exitX=0;exitY=0.25;exitDx=0;exitDy=0;" parent="1" source="7CrN32lwPKDlkBhgCrNZ-135" edge="1">
          <mxGeometry width="50" height="50" relative="1" as="geometry">
            <mxPoint x="460" y="280" as="sourcePoint" />
            <mxPoint x="750" y="300" as="targetPoint" />
          </mxGeometry>
        </mxCell>
        <mxCell id="7CrN32lwPKDlkBhgCrNZ-137" value="" style="endArrow=classic;html=1;rounded=0;strokeColor=#0000FF;entryX=1;entryY=0.5;entryDx=0;entryDy=0;" parent="1" target="7CrN32lwPKDlkBhgCrNZ-134" edge="1">
          <mxGeometry width="50" height="50" relative="1" as="geometry">
            <mxPoint x="840" y="320" as="sourcePoint" />
            <mxPoint x="760" y="310" as="targetPoint" />
          </mxGeometry>
        </mxCell>
      </root>
    </mxGraphModel>
  </diagram>
  <diagram id="0PfTVphg6ggNbpNo9ENg" name="第 2 页">
    <mxGraphModel dx="1122" dy="612" grid="1" gridSize="10" guides="1" tooltips="1" connect="1" arrows="1" fold="1" page="1" pageScale="1" pageWidth="980" pageHeight="1390" math="0" shadow="0">
      <root>
        <mxCell id="0" />
        <mxCell id="1" parent="0" />
        <mxCell id="rjxl_xpbBxepjktIciuN-1" value="" style="ellipse;whiteSpace=wrap;html=1;aspect=fixed;fillColor=#00FF00;" vertex="1" parent="1">
          <mxGeometry x="90" y="250" width="20" height="20" as="geometry" />
        </mxCell>
        <mxCell id="rjxl_xpbBxepjktIciuN-2" value="" style="endArrow=none;html=1;rounded=0;entryX=0;entryY=1;entryDx=0;entryDy=0;" edge="1" parent="1" target="rjxl_xpbBxepjktIciuN-1">
          <mxGeometry width="50" height="50" relative="1" as="geometry">
            <mxPoint x="70" y="290" as="sourcePoint" />
            <mxPoint x="90" y="270" as="targetPoint" />
          </mxGeometry>
        </mxCell>
        <mxCell id="rjxl_xpbBxepjktIciuN-3" value="" style="whiteSpace=wrap;html=1;aspect=fixed;fillColor=#00FF00;" vertex="1" parent="1">
          <mxGeometry x="50" y="290" width="20" height="20" as="geometry" />
        </mxCell>
        <mxCell id="rjxl_xpbBxepjktIciuN-4" value="" style="whiteSpace=wrap;html=1;aspect=fixed;fillColor=#00FF00;" vertex="1" parent="1">
          <mxGeometry x="130" y="290" width="20" height="20" as="geometry" />
        </mxCell>
        <mxCell id="rjxl_xpbBxepjktIciuN-5" value="" style="ellipse;whiteSpace=wrap;html=1;aspect=fixed;fillColor=#00FF00;" vertex="1" parent="1">
          <mxGeometry x="130" y="330" width="20" height="20" as="geometry" />
        </mxCell>
        <mxCell id="rjxl_xpbBxepjktIciuN-6" value="" style="whiteSpace=wrap;html=1;aspect=fixed;fillColor=#00FF00;" vertex="1" parent="1">
          <mxGeometry x="170" y="370" width="20" height="20" as="geometry" />
        </mxCell>
        <mxCell id="rjxl_xpbBxepjktIciuN-7" value="" style="whiteSpace=wrap;html=1;aspect=fixed;fillColor=#00FF00;" vertex="1" parent="1">
          <mxGeometry x="130" y="370" width="20" height="20" as="geometry" />
        </mxCell>
        <mxCell id="rjxl_xpbBxepjktIciuN-8" value="" style="whiteSpace=wrap;html=1;aspect=fixed;fillColor=#00FF00;" vertex="1" parent="1">
          <mxGeometry x="90" y="370" width="20" height="20" as="geometry" />
        </mxCell>
        <mxCell id="rjxl_xpbBxepjktIciuN-9" value="" style="ellipse;whiteSpace=wrap;html=1;aspect=fixed;fillColor=#00FF00;" vertex="1" parent="1">
          <mxGeometry x="170" y="410" width="20" height="20" as="geometry" />
        </mxCell>
        <mxCell id="rjxl_xpbBxepjktIciuN-10" value="" style="ellipse;whiteSpace=wrap;html=1;aspect=fixed;fillColor=#00FF00;" vertex="1" parent="1">
          <mxGeometry x="130" y="410" width="20" height="20" as="geometry" />
        </mxCell>
        <mxCell id="rjxl_xpbBxepjktIciuN-11" value="" style="ellipse;whiteSpace=wrap;html=1;aspect=fixed;fillColor=#00FF00;" vertex="1" parent="1">
          <mxGeometry x="90" y="410" width="20" height="20" as="geometry" />
        </mxCell>
        <mxCell id="rjxl_xpbBxepjktIciuN-12" value="" style="endArrow=none;html=1;rounded=0;entryX=0;entryY=0;entryDx=0;entryDy=0;exitX=1;exitY=1;exitDx=0;exitDy=0;" edge="1" parent="1" source="rjxl_xpbBxepjktIciuN-1" target="rjxl_xpbBxepjktIciuN-4">
          <mxGeometry width="50" height="50" relative="1" as="geometry">
            <mxPoint x="80" y="300" as="sourcePoint" />
            <mxPoint x="102.9289321881347" y="277.0710678118653" as="targetPoint" />
          </mxGeometry>
        </mxCell>
        <mxCell id="rjxl_xpbBxepjktIciuN-15" value="" style="endArrow=none;html=1;rounded=0;entryX=0.5;entryY=1;entryDx=0;entryDy=0;exitX=0.5;exitY=0;exitDx=0;exitDy=0;strokeColor=#FF0000;" edge="1" parent="1" target="rjxl_xpbBxepjktIciuN-3">
          <mxGeometry width="50" height="50" relative="1" as="geometry">
            <mxPoint x="60" y="330" as="sourcePoint" />
            <mxPoint x="270" y="390" as="targetPoint" />
          </mxGeometry>
        </mxCell>
        <mxCell id="rjxl_xpbBxepjktIciuN-16" value="" style="endArrow=none;html=1;rounded=0;entryX=0.5;entryY=1;entryDx=0;entryDy=0;exitX=0.5;exitY=0;exitDx=0;exitDy=0;strokeColor=#FF0000;strokeWidth=2;" edge="1" parent="1">
          <mxGeometry width="50" height="50" relative="1" as="geometry">
            <mxPoint x="139.5" y="410" as="sourcePoint" />
            <mxPoint x="139.5" y="390" as="targetPoint" />
          </mxGeometry>
        </mxCell>
        <mxCell id="rjxl_xpbBxepjktIciuN-17" value="" style="endArrow=none;html=1;rounded=0;entryX=0.5;entryY=1;entryDx=0;entryDy=0;exitX=0.5;exitY=0;exitDx=0;exitDy=0;strokeColor=#FF0000;strokeWidth=2;" edge="1" parent="1">
          <mxGeometry width="50" height="50" relative="1" as="geometry">
            <mxPoint x="139.5" y="330" as="sourcePoint" />
            <mxPoint x="139.5" y="310" as="targetPoint" />
          </mxGeometry>
        </mxCell>
        <mxCell id="rjxl_xpbBxepjktIciuN-18" value="" style="endArrow=none;html=1;rounded=0;entryX=0.5;entryY=1;entryDx=0;entryDy=0;exitX=0.5;exitY=0;exitDx=0;exitDy=0;strokeColor=#FF0000;strokeWidth=2;" edge="1" parent="1">
          <mxGeometry width="50" height="50" relative="1" as="geometry">
            <mxPoint x="99.5" y="410" as="sourcePoint" />
            <mxPoint x="99.5" y="390" as="targetPoint" />
          </mxGeometry>
        </mxCell>
        <mxCell id="rjxl_xpbBxepjktIciuN-19" value="" style="endArrow=none;html=1;rounded=0;entryX=0.5;entryY=1;entryDx=0;entryDy=0;exitX=0.5;exitY=0;exitDx=0;exitDy=0;strokeColor=#FF0000;strokeWidth=2;" edge="1" parent="1">
          <mxGeometry width="50" height="50" relative="1" as="geometry">
            <mxPoint x="179.5" y="410" as="sourcePoint" />
            <mxPoint x="179.5" y="390" as="targetPoint" />
          </mxGeometry>
        </mxCell>
        <mxCell id="rjxl_xpbBxepjktIciuN-21" value="" style="whiteSpace=wrap;html=1;aspect=fixed;fillColor=#00FF00;" vertex="1" parent="1">
          <mxGeometry x="330" y="370" width="20" height="20" as="geometry" />
        </mxCell>
        <mxCell id="rjxl_xpbBxepjktIciuN-22" value="" style="whiteSpace=wrap;html=1;aspect=fixed;fillColor=#00FF00;" vertex="1" parent="1">
          <mxGeometry x="250" y="370" width="20" height="20" as="geometry" />
        </mxCell>
        <mxCell id="rjxl_xpbBxepjktIciuN-23" value="" style="ellipse;whiteSpace=wrap;html=1;aspect=fixed;fillColor=#00FF00;" vertex="1" parent="1">
          <mxGeometry x="330" y="410" width="20" height="20" as="geometry" />
        </mxCell>
        <mxCell id="rjxl_xpbBxepjktIciuN-24" value="" style="ellipse;whiteSpace=wrap;html=1;aspect=fixed;fillColor=#00FF00;" vertex="1" parent="1">
          <mxGeometry x="250" y="410" width="20" height="20" as="geometry" />
        </mxCell>
        <mxCell id="rjxl_xpbBxepjktIciuN-25" value="" style="endArrow=none;html=1;rounded=0;entryX=0.5;entryY=1;entryDx=0;entryDy=0;exitX=0.5;exitY=0;exitDx=0;exitDy=0;strokeColor=#FF0000;strokeWidth=2;" edge="1" parent="1">
          <mxGeometry width="50" height="50" relative="1" as="geometry">
            <mxPoint x="299.5" y="330" as="sourcePoint" />
            <mxPoint x="299.5" y="310" as="targetPoint" />
          </mxGeometry>
        </mxCell>
        <mxCell id="rjxl_xpbBxepjktIciuN-26" value="" style="endArrow=none;html=1;rounded=0;entryX=0.5;entryY=1;entryDx=0;entryDy=0;exitX=0.5;exitY=0;exitDx=0;exitDy=0;strokeColor=#FF0000;strokeWidth=2;" edge="1" parent="1">
          <mxGeometry width="50" height="50" relative="1" as="geometry">
            <mxPoint x="259.5" y="410" as="sourcePoint" />
            <mxPoint x="259.5" y="390" as="targetPoint" />
          </mxGeometry>
        </mxCell>
        <mxCell id="rjxl_xpbBxepjktIciuN-27" value="" style="endArrow=none;html=1;rounded=0;entryX=0.5;entryY=1;entryDx=0;entryDy=0;exitX=0.5;exitY=0;exitDx=0;exitDy=0;strokeColor=#FF0000;strokeWidth=2;" edge="1" parent="1">
          <mxGeometry width="50" height="50" relative="1" as="geometry">
            <mxPoint x="339.5" y="410" as="sourcePoint" />
            <mxPoint x="339.5" y="390" as="targetPoint" />
          </mxGeometry>
        </mxCell>
        <mxCell id="rjxl_xpbBxepjktIciuN-28" value="" style="ellipse;whiteSpace=wrap;html=1;aspect=fixed;fillColor=#00FF00;" vertex="1" parent="1">
          <mxGeometry x="290" y="250" width="20" height="20" as="geometry" />
        </mxCell>
        <mxCell id="rjxl_xpbBxepjktIciuN-29" value="" style="ellipse;whiteSpace=wrap;html=1;aspect=fixed;fillColor=#00FF00;" vertex="1" parent="1">
          <mxGeometry x="190" y="250" width="20" height="20" as="geometry" />
        </mxCell>
        <mxCell id="rjxl_xpbBxepjktIciuN-30" value="" style="endArrow=none;html=1;rounded=0;entryX=0.5;entryY=1;entryDx=0;entryDy=0;exitX=0.5;exitY=0;exitDx=0;exitDy=0;strokeColor=#FF0000;strokeWidth=2;" edge="1" parent="1">
          <mxGeometry width="50" height="50" relative="1" as="geometry">
            <mxPoint x="59.5" y="330" as="sourcePoint" />
            <mxPoint x="59.5" y="310" as="targetPoint" />
          </mxGeometry>
        </mxCell>
        <mxCell id="rjxl_xpbBxepjktIciuN-31" value="" style="endArrow=none;dashed=1;html=1;rounded=0;strokeColor=#000000;entryX=0;entryY=0.5;entryDx=0;entryDy=0;exitX=1;exitY=0.5;exitDx=0;exitDy=0;" edge="1" parent="1" source="rjxl_xpbBxepjktIciuN-24" target="rjxl_xpbBxepjktIciuN-23">
          <mxGeometry width="50" height="50" relative="1" as="geometry">
            <mxPoint x="160" y="350" as="sourcePoint" />
            <mxPoint x="300" y="350" as="targetPoint" />
          </mxGeometry>
        </mxCell>
        <mxCell id="rjxl_xpbBxepjktIciuN-32" value="" style="ellipse;whiteSpace=wrap;html=1;aspect=fixed;fillColor=#00FF00;" vertex="1" parent="1">
          <mxGeometry x="730" y="90" width="20" height="20" as="geometry" />
        </mxCell>
        <mxCell id="rjxl_xpbBxepjktIciuN-33" value="" style="whiteSpace=wrap;html=1;aspect=fixed;fillColor=#00FF00;" vertex="1" parent="1">
          <mxGeometry x="730" y="130" width="20" height="20" as="geometry" />
        </mxCell>
        <mxCell id="rjxl_xpbBxepjktIciuN-34" value="outer vertex" style="text;html=1;align=center;verticalAlign=middle;resizable=0;points=[];autosize=1;strokeColor=none;fillColor=none;" vertex="1" parent="1">
          <mxGeometry x="770" y="90" width="80" height="20" as="geometry" />
        </mxCell>
        <mxCell id="rjxl_xpbBxepjktIciuN-35" value="inner vertex" style="text;html=1;align=center;verticalAlign=middle;resizable=0;points=[];autosize=1;strokeColor=none;fillColor=none;" vertex="1" parent="1">
          <mxGeometry x="770" y="130" width="80" height="20" as="geometry" />
        </mxCell>
        <mxCell id="rjxl_xpbBxepjktIciuN-36" value="" style="ellipse;whiteSpace=wrap;html=1;aspect=fixed;fillColor=#00FF00;" vertex="1" parent="1">
          <mxGeometry x="50" y="330" width="20" height="20" as="geometry" />
        </mxCell>
        <mxCell id="rjxl_xpbBxepjktIciuN-37" value="" style="endArrow=none;dashed=1;html=1;rounded=0;strokeColor=#000000;entryX=0.5;entryY=1;entryDx=0;entryDy=0;exitX=0.5;exitY=0;exitDx=0;exitDy=0;" edge="1" parent="1" source="rjxl_xpbBxepjktIciuN-22">
          <mxGeometry width="50" height="50" relative="1" as="geometry">
            <mxPoint x="280" y="430" as="sourcePoint" />
            <mxPoint x="300" y="350" as="targetPoint" />
          </mxGeometry>
        </mxCell>
        <mxCell id="rjxl_xpbBxepjktIciuN-38" value="" style="endArrow=none;dashed=1;html=1;rounded=0;strokeColor=#000000;entryX=0.5;entryY=0;entryDx=0;entryDy=0;startArrow=none;exitX=0.5;exitY=1;exitDx=0;exitDy=0;" edge="1" parent="1" source="rjxl_xpbBxepjktIciuN-39" target="rjxl_xpbBxepjktIciuN-21">
          <mxGeometry width="50" height="50" relative="1" as="geometry">
            <mxPoint x="300" y="350" as="sourcePoint" />
            <mxPoint x="340" y="430" as="targetPoint" />
          </mxGeometry>
        </mxCell>
        <mxCell id="rjxl_xpbBxepjktIciuN-39" value="" style="whiteSpace=wrap;html=1;aspect=fixed;fillColor=#00FF00;" vertex="1" parent="1">
          <mxGeometry x="290" y="330" width="20" height="20" as="geometry" />
        </mxCell>
        <mxCell id="rjxl_xpbBxepjktIciuN-40" value="" style="ellipse;whiteSpace=wrap;html=1;aspect=fixed;fillColor=#00FF00;" vertex="1" parent="1">
          <mxGeometry x="290" y="290" width="20" height="20" as="geometry" />
        </mxCell>
        <mxCell id="rjxl_xpbBxepjktIciuN-41" value="" style="endArrow=none;dashed=1;html=1;rounded=0;strokeColor=#000000;entryX=0.5;entryY=1;entryDx=0;entryDy=0;" edge="1" parent="1" target="rjxl_xpbBxepjktIciuN-28">
          <mxGeometry width="50" height="50" relative="1" as="geometry">
            <mxPoint x="300" y="290" as="sourcePoint" />
            <mxPoint x="340" y="430" as="targetPoint" />
          </mxGeometry>
        </mxCell>
        <mxCell id="rjxl_xpbBxepjktIciuN-43" style="edgeStyle=orthogonalEdgeStyle;rounded=0;orthogonalLoop=1;jettySize=auto;html=1;exitX=0.5;exitY=1;exitDx=0;exitDy=0;entryX=0.5;entryY=0;entryDx=0;entryDy=0;strokeColor=#0000FF;" edge="1" parent="1" source="rjxl_xpbBxepjktIciuN-44" target="rjxl_xpbBxepjktIciuN-1">
          <mxGeometry relative="1" as="geometry" />
        </mxCell>
        <mxCell id="rjxl_xpbBxepjktIciuN-44" value="&lt;b&gt;&lt;font style=&quot;font-size: 15px;&quot;&gt;v&lt;/font&gt;&lt;/b&gt;" style="text;html=1;strokeColor=none;fillColor=none;align=center;verticalAlign=middle;whiteSpace=wrap;rounded=0;" vertex="1" parent="1">
          <mxGeometry x="70" y="180" width="60" height="30" as="geometry" />
        </mxCell>
        <mxCell id="rjxl_xpbBxepjktIciuN-45" value="" style="endArrow=none;dashed=1;html=1;dashPattern=1 3;strokeWidth=2;rounded=0;strokeColor=#0000FF;" edge="1" parent="1">
          <mxGeometry width="50" height="50" relative="1" as="geometry">
            <mxPoint x="30" y="240" as="sourcePoint" />
            <mxPoint x="30" y="240" as="targetPoint" />
            <Array as="points">
              <mxPoint x="170" y="240" />
              <mxPoint x="170" y="280" />
              <mxPoint x="170" y="360" />
              <mxPoint x="30" y="360" />
            </Array>
          </mxGeometry>
        </mxCell>
        <mxCell id="rjxl_xpbBxepjktIciuN-46" value="" style="shape=flexArrow;endArrow=classic;html=1;rounded=0;strokeColor=#0000FF;" edge="1" parent="1">
          <mxGeometry width="50" height="50" relative="1" as="geometry">
            <mxPoint x="360" y="320" as="sourcePoint" />
            <mxPoint x="460" y="320" as="targetPoint" />
          </mxGeometry>
        </mxCell>
        <mxCell id="rjxl_xpbBxepjktIciuN-47" value="choose next unmarked vertex" style="text;html=1;strokeColor=none;fillColor=none;align=center;verticalAlign=middle;whiteSpace=wrap;rounded=0;" vertex="1" parent="1">
          <mxGeometry x="360" y="260" width="90" height="30" as="geometry" />
        </mxCell>
        <mxCell id="rjxl_xpbBxepjktIciuN-48" value="" style="ellipse;whiteSpace=wrap;html=1;aspect=fixed;fillColor=#00FF00;" vertex="1" parent="1">
          <mxGeometry x="530" y="250" width="20" height="20" as="geometry" />
        </mxCell>
        <mxCell id="rjxl_xpbBxepjktIciuN-49" value="" style="endArrow=none;html=1;rounded=0;entryX=0;entryY=1;entryDx=0;entryDy=0;" edge="1" parent="1" target="rjxl_xpbBxepjktIciuN-48">
          <mxGeometry width="50" height="50" relative="1" as="geometry">
            <mxPoint x="510" y="290" as="sourcePoint" />
            <mxPoint x="530" y="270" as="targetPoint" />
          </mxGeometry>
        </mxCell>
        <mxCell id="rjxl_xpbBxepjktIciuN-50" value="" style="whiteSpace=wrap;html=1;aspect=fixed;fillColor=#00FF00;" vertex="1" parent="1">
          <mxGeometry x="490" y="290" width="20" height="20" as="geometry" />
        </mxCell>
        <mxCell id="rjxl_xpbBxepjktIciuN-51" value="" style="whiteSpace=wrap;html=1;aspect=fixed;fillColor=#00FF00;" vertex="1" parent="1">
          <mxGeometry x="570" y="290" width="20" height="20" as="geometry" />
        </mxCell>
        <mxCell id="rjxl_xpbBxepjktIciuN-58" value="" style="endArrow=none;html=1;rounded=0;entryX=0;entryY=0;entryDx=0;entryDy=0;exitX=1;exitY=1;exitDx=0;exitDy=0;" edge="1" parent="1" source="rjxl_xpbBxepjktIciuN-48" target="rjxl_xpbBxepjktIciuN-51">
          <mxGeometry width="50" height="50" relative="1" as="geometry">
            <mxPoint x="520" y="300" as="sourcePoint" />
            <mxPoint x="542.9289321881347" y="277.0710678118653" as="targetPoint" />
          </mxGeometry>
        </mxCell>
        <mxCell id="rjxl_xpbBxepjktIciuN-61" value="" style="endArrow=none;html=1;rounded=0;entryX=0.5;entryY=1;entryDx=0;entryDy=0;exitX=0.5;exitY=0;exitDx=0;exitDy=0;strokeColor=#FF0000;" edge="1" parent="1" target="rjxl_xpbBxepjktIciuN-50">
          <mxGeometry width="50" height="50" relative="1" as="geometry">
            <mxPoint x="500" y="330" as="sourcePoint" />
            <mxPoint x="710" y="390" as="targetPoint" />
          </mxGeometry>
        </mxCell>
        <mxCell id="rjxl_xpbBxepjktIciuN-63" value="" style="endArrow=none;html=1;rounded=0;entryX=0.5;entryY=1;entryDx=0;entryDy=0;exitX=0.5;exitY=0;exitDx=0;exitDy=0;strokeColor=#FF0000;strokeWidth=2;" edge="1" parent="1">
          <mxGeometry width="50" height="50" relative="1" as="geometry">
            <mxPoint x="579.5" y="330" as="sourcePoint" />
            <mxPoint x="579.5" y="310" as="targetPoint" />
          </mxGeometry>
        </mxCell>
        <mxCell id="rjxl_xpbBxepjktIciuN-67" value="" style="endArrow=none;dashed=1;html=1;rounded=0;strokeColor=#000000;" edge="1" parent="1">
          <mxGeometry width="50" height="50" relative="1" as="geometry">
            <mxPoint x="590" y="340" as="sourcePoint" />
            <mxPoint x="730" y="340" as="targetPoint" />
          </mxGeometry>
        </mxCell>
        <mxCell id="rjxl_xpbBxepjktIciuN-68" value="" style="whiteSpace=wrap;html=1;aspect=fixed;fillColor=#00FF00;" vertex="1" parent="1">
          <mxGeometry x="770" y="370" width="20" height="20" as="geometry" />
        </mxCell>
        <mxCell id="rjxl_xpbBxepjktIciuN-69" value="" style="whiteSpace=wrap;html=1;aspect=fixed;fillColor=#00FF00;" vertex="1" parent="1">
          <mxGeometry x="690" y="370" width="20" height="20" as="geometry" />
        </mxCell>
        <mxCell id="rjxl_xpbBxepjktIciuN-70" value="" style="ellipse;whiteSpace=wrap;html=1;aspect=fixed;fillColor=#00FF00;" vertex="1" parent="1">
          <mxGeometry x="770" y="410" width="20" height="20" as="geometry" />
        </mxCell>
        <mxCell id="rjxl_xpbBxepjktIciuN-71" value="" style="ellipse;whiteSpace=wrap;html=1;aspect=fixed;fillColor=#00FF00;" vertex="1" parent="1">
          <mxGeometry x="690" y="410" width="20" height="20" as="geometry" />
        </mxCell>
        <mxCell id="rjxl_xpbBxepjktIciuN-74" value="" style="endArrow=none;html=1;rounded=0;entryX=0.5;entryY=1;entryDx=0;entryDy=0;exitX=0.5;exitY=0;exitDx=0;exitDy=0;strokeColor=#FF0000;strokeWidth=2;" edge="1" parent="1">
          <mxGeometry width="50" height="50" relative="1" as="geometry">
            <mxPoint x="699.5" y="410" as="sourcePoint" />
            <mxPoint x="699.5" y="390" as="targetPoint" />
          </mxGeometry>
        </mxCell>
        <mxCell id="rjxl_xpbBxepjktIciuN-75" value="" style="endArrow=none;html=1;rounded=0;entryX=0.5;entryY=1;entryDx=0;entryDy=0;exitX=0.5;exitY=0;exitDx=0;exitDy=0;strokeColor=#FF0000;strokeWidth=2;" edge="1" parent="1">
          <mxGeometry width="50" height="50" relative="1" as="geometry">
            <mxPoint x="779.5" y="410" as="sourcePoint" />
            <mxPoint x="779.5" y="390" as="targetPoint" />
          </mxGeometry>
        </mxCell>
        <mxCell id="rjxl_xpbBxepjktIciuN-76" value="" style="ellipse;whiteSpace=wrap;html=1;aspect=fixed;fillColor=#00FF00;" vertex="1" parent="1">
          <mxGeometry x="730" y="250" width="20" height="20" as="geometry" />
        </mxCell>
        <mxCell id="rjxl_xpbBxepjktIciuN-77" value="" style="endArrow=none;html=1;rounded=0;exitX=0.5;exitY=0;exitDx=0;exitDy=0;entryX=0.5;entryY=1;entryDx=0;entryDy=0;" edge="1" parent="1" target="rjxl_xpbBxepjktIciuN-76">
          <mxGeometry width="50" height="50" relative="1" as="geometry">
            <mxPoint x="740" y="290" as="sourcePoint" />
            <mxPoint x="680" y="320" as="targetPoint" />
          </mxGeometry>
        </mxCell>
        <mxCell id="rjxl_xpbBxepjktIciuN-78" value="" style="ellipse;whiteSpace=wrap;html=1;aspect=fixed;fillColor=#00FF00;" vertex="1" parent="1">
          <mxGeometry x="630" y="250" width="20" height="20" as="geometry" />
        </mxCell>
        <mxCell id="rjxl_xpbBxepjktIciuN-79" value="" style="endArrow=none;html=1;rounded=0;entryX=0.5;entryY=1;entryDx=0;entryDy=0;exitX=0.5;exitY=0;exitDx=0;exitDy=0;strokeColor=#FF0000;strokeWidth=2;" edge="1" parent="1">
          <mxGeometry width="50" height="50" relative="1" as="geometry">
            <mxPoint x="499.5" y="330" as="sourcePoint" />
            <mxPoint x="499.5" y="310" as="targetPoint" />
          </mxGeometry>
        </mxCell>
        <mxCell id="rjxl_xpbBxepjktIciuN-80" value="" style="endArrow=none;dashed=1;html=1;rounded=0;strokeColor=#000000;entryX=0;entryY=0.5;entryDx=0;entryDy=0;exitX=1;exitY=0.5;exitDx=0;exitDy=0;" edge="1" parent="1" source="rjxl_xpbBxepjktIciuN-71" target="rjxl_xpbBxepjktIciuN-70">
          <mxGeometry width="50" height="50" relative="1" as="geometry">
            <mxPoint x="600" y="350" as="sourcePoint" />
            <mxPoint x="740" y="350" as="targetPoint" />
          </mxGeometry>
        </mxCell>
        <mxCell id="rjxl_xpbBxepjktIciuN-82" value="" style="ellipse;whiteSpace=wrap;html=1;aspect=fixed;fillColor=#00FF00;" vertex="1" parent="1">
          <mxGeometry x="490" y="330" width="20" height="20" as="geometry" />
        </mxCell>
        <mxCell id="rjxl_xpbBxepjktIciuN-83" style="edgeStyle=orthogonalEdgeStyle;rounded=0;orthogonalLoop=1;jettySize=auto;html=1;exitX=0.5;exitY=1;exitDx=0;exitDy=0;entryX=0.5;entryY=0;entryDx=0;entryDy=0;strokeColor=#0000FF;" edge="1" parent="1" source="rjxl_xpbBxepjktIciuN-84" target="rjxl_xpbBxepjktIciuN-76">
          <mxGeometry relative="1" as="geometry" />
        </mxCell>
        <mxCell id="rjxl_xpbBxepjktIciuN-84" value="&lt;b style=&quot;font-size: 15px;&quot;&gt;v&lt;/b&gt;" style="text;html=1;strokeColor=none;fillColor=none;align=center;verticalAlign=middle;whiteSpace=wrap;rounded=0;" vertex="1" parent="1">
          <mxGeometry x="710" y="180" width="60" height="30" as="geometry" />
        </mxCell>
        <mxCell id="rjxl_xpbBxepjktIciuN-85" value="" style="endArrow=none;dashed=1;html=1;dashPattern=1 3;strokeWidth=2;rounded=0;strokeColor=#0000FF;" edge="1" parent="1">
          <mxGeometry width="50" height="50" relative="1" as="geometry">
            <mxPoint x="680" y="250" as="sourcePoint" />
            <mxPoint x="680" y="250" as="targetPoint" />
            <Array as="points">
              <mxPoint x="800" y="250" />
              <mxPoint x="800" y="360" />
              <mxPoint x="680" y="360" />
            </Array>
          </mxGeometry>
        </mxCell>
        <mxCell id="rjxl_xpbBxepjktIciuN-86" value="" style="whiteSpace=wrap;html=1;aspect=fixed;fillColor=#00FF00;" vertex="1" parent="1">
          <mxGeometry x="730" y="290" width="20" height="20" as="geometry" />
        </mxCell>
        <mxCell id="rjxl_xpbBxepjktIciuN-87" value="" style="endArrow=none;html=1;rounded=0;entryX=0.5;entryY=1;entryDx=0;entryDy=0;exitX=0.5;exitY=0;exitDx=0;exitDy=0;strokeColor=#FF0000;" edge="1" parent="1" target="rjxl_xpbBxepjktIciuN-86">
          <mxGeometry width="50" height="50" relative="1" as="geometry">
            <mxPoint x="740" y="330" as="sourcePoint" />
            <mxPoint x="950" y="390" as="targetPoint" />
          </mxGeometry>
        </mxCell>
        <mxCell id="rjxl_xpbBxepjktIciuN-88" value="" style="endArrow=none;html=1;rounded=0;entryX=0.5;entryY=1;entryDx=0;entryDy=0;exitX=0.5;exitY=0;exitDx=0;exitDy=0;strokeColor=#FF0000;strokeWidth=2;" edge="1" parent="1">
          <mxGeometry width="50" height="50" relative="1" as="geometry">
            <mxPoint x="739.5" y="330" as="sourcePoint" />
            <mxPoint x="739.5" y="310" as="targetPoint" />
          </mxGeometry>
        </mxCell>
        <mxCell id="rjxl_xpbBxepjktIciuN-89" value="" style="ellipse;whiteSpace=wrap;html=1;aspect=fixed;fillColor=#00FF00;" vertex="1" parent="1">
          <mxGeometry x="730" y="330" width="20" height="20" as="geometry" />
        </mxCell>
        <mxCell id="rjxl_xpbBxepjktIciuN-93" value="" style="endArrow=none;dashed=1;html=1;rounded=0;strokeColor=#000000;" edge="1" parent="1">
          <mxGeometry width="50" height="50" relative="1" as="geometry">
            <mxPoint x="150" y="340" as="sourcePoint" />
            <mxPoint x="290" y="340" as="targetPoint" />
          </mxGeometry>
        </mxCell>
        <mxCell id="rjxl_xpbBxepjktIciuN-94" value="" style="endArrow=none;dashed=1;html=1;rounded=0;entryX=0.023;entryY=0.85;entryDx=0;entryDy=0;entryPerimeter=0;" edge="1" parent="1" target="rjxl_xpbBxepjktIciuN-5">
          <mxGeometry width="50" height="50" relative="1" as="geometry">
            <mxPoint x="100" y="370" as="sourcePoint" />
            <mxPoint x="130" y="350" as="targetPoint" />
          </mxGeometry>
        </mxCell>
        <mxCell id="rjxl_xpbBxepjktIciuN-95" value="" style="endArrow=none;dashed=1;html=1;rounded=0;exitX=0.5;exitY=0;exitDx=0;exitDy=0;entryX=0.5;entryY=1;entryDx=0;entryDy=0;" edge="1" parent="1" source="rjxl_xpbBxepjktIciuN-7" target="rjxl_xpbBxepjktIciuN-5">
          <mxGeometry width="50" height="50" relative="1" as="geometry">
            <mxPoint x="220" y="380" as="sourcePoint" />
            <mxPoint x="270" y="330" as="targetPoint" />
          </mxGeometry>
        </mxCell>
        <mxCell id="rjxl_xpbBxepjktIciuN-96" value="" style="endArrow=none;dashed=1;html=1;rounded=0;exitX=0.5;exitY=0;exitDx=0;exitDy=0;entryX=1;entryY=1;entryDx=0;entryDy=0;" edge="1" parent="1" source="rjxl_xpbBxepjktIciuN-6" target="rjxl_xpbBxepjktIciuN-5">
          <mxGeometry width="50" height="50" relative="1" as="geometry">
            <mxPoint x="110" y="380" as="sourcePoint" />
            <mxPoint x="150" y="350" as="targetPoint" />
          </mxGeometry>
        </mxCell>
        <mxCell id="rjxl_xpbBxepjktIciuN-98" value="w" style="text;html=1;align=center;verticalAlign=middle;resizable=0;points=[];autosize=1;strokeColor=none;fillColor=none;fontSize=15;" vertex="1" parent="1">
          <mxGeometry x="125" y="260" width="30" height="20" as="geometry" />
        </mxCell>
        <mxCell id="rjxl_xpbBxepjktIciuN-99" value="x" style="text;html=1;align=center;verticalAlign=middle;resizable=0;points=[];autosize=1;strokeColor=none;fillColor=none;fontSize=15;" vertex="1" parent="1">
          <mxGeometry x="105" y="330" width="20" height="20" as="geometry" />
        </mxCell>
        <mxCell id="rjxl_xpbBxepjktIciuN-100" value="" style="ellipse;whiteSpace=wrap;html=1;aspect=fixed;fillColor=#00FF00;" vertex="1" parent="1">
          <mxGeometry x="570" y="330" width="20" height="20" as="geometry" />
        </mxCell>
        <mxCell id="rjxl_xpbBxepjktIciuN-101" value="" style="whiteSpace=wrap;html=1;aspect=fixed;fillColor=#00FF00;" vertex="1" parent="1">
          <mxGeometry x="610" y="370" width="20" height="20" as="geometry" />
        </mxCell>
        <mxCell id="rjxl_xpbBxepjktIciuN-102" value="" style="whiteSpace=wrap;html=1;aspect=fixed;fillColor=#00FF00;" vertex="1" parent="1">
          <mxGeometry x="570" y="370" width="20" height="20" as="geometry" />
        </mxCell>
        <mxCell id="rjxl_xpbBxepjktIciuN-103" value="" style="whiteSpace=wrap;html=1;aspect=fixed;fillColor=#00FF00;" vertex="1" parent="1">
          <mxGeometry x="530" y="370" width="20" height="20" as="geometry" />
        </mxCell>
        <mxCell id="rjxl_xpbBxepjktIciuN-104" value="" style="ellipse;whiteSpace=wrap;html=1;aspect=fixed;fillColor=#00FF00;" vertex="1" parent="1">
          <mxGeometry x="610" y="410" width="20" height="20" as="geometry" />
        </mxCell>
        <mxCell id="rjxl_xpbBxepjktIciuN-105" value="" style="ellipse;whiteSpace=wrap;html=1;aspect=fixed;fillColor=#00FF00;" vertex="1" parent="1">
          <mxGeometry x="570" y="410" width="20" height="20" as="geometry" />
        </mxCell>
        <mxCell id="rjxl_xpbBxepjktIciuN-106" value="" style="ellipse;whiteSpace=wrap;html=1;aspect=fixed;fillColor=#00FF00;" vertex="1" parent="1">
          <mxGeometry x="530" y="410" width="20" height="20" as="geometry" />
        </mxCell>
        <mxCell id="rjxl_xpbBxepjktIciuN-107" value="" style="endArrow=none;html=1;rounded=0;entryX=0.5;entryY=1;entryDx=0;entryDy=0;exitX=0.5;exitY=0;exitDx=0;exitDy=0;strokeColor=#FF0000;strokeWidth=2;" edge="1" parent="1">
          <mxGeometry width="50" height="50" relative="1" as="geometry">
            <mxPoint x="579.5" y="410" as="sourcePoint" />
            <mxPoint x="579.5" y="390" as="targetPoint" />
          </mxGeometry>
        </mxCell>
        <mxCell id="rjxl_xpbBxepjktIciuN-108" value="" style="endArrow=none;html=1;rounded=0;entryX=0.5;entryY=1;entryDx=0;entryDy=0;exitX=0.5;exitY=0;exitDx=0;exitDy=0;strokeColor=#FF0000;strokeWidth=2;" edge="1" parent="1">
          <mxGeometry width="50" height="50" relative="1" as="geometry">
            <mxPoint x="539.5" y="410" as="sourcePoint" />
            <mxPoint x="539.5" y="390" as="targetPoint" />
          </mxGeometry>
        </mxCell>
        <mxCell id="rjxl_xpbBxepjktIciuN-109" value="" style="endArrow=none;html=1;rounded=0;entryX=0.5;entryY=1;entryDx=0;entryDy=0;exitX=0.5;exitY=0;exitDx=0;exitDy=0;strokeColor=#FF0000;strokeWidth=2;" edge="1" parent="1">
          <mxGeometry width="50" height="50" relative="1" as="geometry">
            <mxPoint x="619.5" y="410" as="sourcePoint" />
            <mxPoint x="619.5" y="390" as="targetPoint" />
          </mxGeometry>
        </mxCell>
        <mxCell id="rjxl_xpbBxepjktIciuN-110" value="" style="endArrow=none;dashed=1;html=1;rounded=0;entryX=0.023;entryY=0.85;entryDx=0;entryDy=0;entryPerimeter=0;" edge="1" parent="1" target="rjxl_xpbBxepjktIciuN-100">
          <mxGeometry width="50" height="50" relative="1" as="geometry">
            <mxPoint x="540" y="370" as="sourcePoint" />
            <mxPoint x="570" y="350" as="targetPoint" />
          </mxGeometry>
        </mxCell>
        <mxCell id="rjxl_xpbBxepjktIciuN-111" value="" style="endArrow=none;dashed=1;html=1;rounded=0;exitX=0.5;exitY=0;exitDx=0;exitDy=0;entryX=0.5;entryY=1;entryDx=0;entryDy=0;" edge="1" parent="1" source="rjxl_xpbBxepjktIciuN-102" target="rjxl_xpbBxepjktIciuN-100">
          <mxGeometry width="50" height="50" relative="1" as="geometry">
            <mxPoint x="660" y="380" as="sourcePoint" />
            <mxPoint x="710" y="330" as="targetPoint" />
          </mxGeometry>
        </mxCell>
        <mxCell id="rjxl_xpbBxepjktIciuN-112" value="" style="endArrow=none;dashed=1;html=1;rounded=0;exitX=0.5;exitY=0;exitDx=0;exitDy=0;entryX=1;entryY=1;entryDx=0;entryDy=0;" edge="1" parent="1" source="rjxl_xpbBxepjktIciuN-101" target="rjxl_xpbBxepjktIciuN-100">
          <mxGeometry width="50" height="50" relative="1" as="geometry">
            <mxPoint x="550" y="380" as="sourcePoint" />
            <mxPoint x="590" y="350" as="targetPoint" />
          </mxGeometry>
        </mxCell>
        <mxCell id="rjxl_xpbBxepjktIciuN-114" value="" style="endArrow=none;dashed=1;html=1;rounded=0;entryX=0.023;entryY=0.85;entryDx=0;entryDy=0;entryPerimeter=0;" edge="1" parent="1">
          <mxGeometry width="50" height="50" relative="1" as="geometry">
            <mxPoint x="699.54" y="370" as="sourcePoint" />
            <mxPoint x="730" y="347" as="targetPoint" />
          </mxGeometry>
        </mxCell>
        <mxCell id="rjxl_xpbBxepjktIciuN-115" value="" style="endArrow=none;dashed=1;html=1;rounded=0;exitX=0.533;exitY=-0.062;exitDx=0;exitDy=0;entryX=1;entryY=1;entryDx=0;entryDy=0;exitPerimeter=0;" edge="1" parent="1" source="rjxl_xpbBxepjktIciuN-68" target="rjxl_xpbBxepjktIciuN-89">
          <mxGeometry width="50" height="50" relative="1" as="geometry">
            <mxPoint x="782.9300000000001" y="370" as="sourcePoint" />
            <mxPoint x="750.0010678118654" y="347.0710678118654" as="targetPoint" />
          </mxGeometry>
        </mxCell>
        <mxCell id="rjxl_xpbBxepjktIciuN-116" value="w" style="text;html=1;align=center;verticalAlign=middle;resizable=0;points=[];autosize=1;strokeColor=none;fillColor=none;fontSize=15;" vertex="1" parent="1">
          <mxGeometry x="755" y="290" width="30" height="20" as="geometry" />
        </mxCell>
        <mxCell id="rjxl_xpbBxepjktIciuN-117" value="x" style="text;html=1;align=center;verticalAlign=middle;resizable=0;points=[];autosize=1;strokeColor=none;fillColor=none;fontSize=15;" vertex="1" parent="1">
          <mxGeometry x="760" y="330" width="20" height="20" as="geometry" />
        </mxCell>
      </root>
    </mxGraphModel>
  </diagram>
</mxfile>
